<svg width="16" height="21" viewBox="0 0 16 21" fill="none" xmlns="http://www.w3.org/2000/svg">
    <path
        d="M14 2.625H10.6667C10.6667 1.17715 9.47083 0 8 0C6.52917 0 5.33333 1.17715 5.33333 2.625H2C0.895833 2.625 0 3.50684 0 4.59375V19.0312C0 20.1182 0.895833 21 2 21H14C15.1042 21 16 20.1182 16 19.0312V4.59375C16 3.50684 15.1042 2.625 14 2.625ZM8 1.64062C8.55417 1.64062 9 2.07949 9 2.625C9 3.17051 8.55417 3.60938 8 3.60938C7.44583 3.60938 7 3.17051 7 2.625C7 2.07949 7.44583 1.64062 8 1.64062ZM13.05 11.148L7.09167 16.9641C6.89583 17.1568 6.57917 17.1527 6.38333 16.96L2.94167 13.5434C2.74583 13.3506 2.75 13.0389 2.94583 12.8461L4.12917 11.6895C4.325 11.4967 4.64167 11.5008 4.8375 11.6936L6.75417 13.5967L11.1708 9.28184C11.3667 9.08906 11.6833 9.09316 11.8792 9.28594L13.0542 10.4508C13.25 10.6477 13.2458 10.9553 13.05 11.148Z"
        fill="#33445B" />
</svg>